_________________________  Visit us at _________________________
  
http://p2pdl.com  ____________________________  http://p2pdl.com

 
http://i.imgur.com/WIUXj.jpg


Release Title: Close Encounters of the Third Kind (1977)

					
Genre: Drama | Sci-Fi
IMDb Rating: 7.8/10 http://www.imdb.com/title/tt0075860/


Plot: After an encounter with UFOs, a line worker feels undeniably drawn to an isolated area in the wilderness where something spectacular is about to happen.


Director:  Steven Spielberg


Stars: Richard Dreyfuss, François Truffaut and Teri Garr.


General
Format                         : Matroska
Format version                 : Version 2
File size                      : 1.79 GiB
Duration                       : 2h 17mn
Overall bit rate               : 1 868 Kbps
Release name                   : Close Encounters of the Third Kind 1977 1080p BRRip  x264 6Ch-AAC - ViZNU [P2PDL]
Source                         : 1080p x264 AC3 mkvrg(Thanks)


Video
ID                             : 1
Format                         : AVC
Format/Info                    : Advanced Video Codec
Codec ID                       : V_MPEG4/ISO/AVC
Duration                       : 2h 17mn
Bit rate                       : 1 548 Kbps
Width                          : 1 920 pixels
Height                         : 816 pixels
Display aspect ratio           : 2.35:1
Frame rate                     : 23.976 fps
Color space                    : YUV
Chroma subsampling             : 4:2:0
Stream size                    : 1.45 GiB (81%)
Writing library                : x264
Default                        : Yes


Audio
ID                             : 2
Format                         : AC-3
Format/Info                    : Audio Coding 3
Mode extension                 : CM (complete main)
Codec ID                       : A_AC3
Duration                       : 2h 17mn
Bit rate mode                  : Constant
Bit rate                       : 320 Kbps
Channel(s)                     : 6 channels
Channel positions              : Front: L C R, Side: L R, LFE
Sampling rate                  : 48.0 KHz
Stream size                    : 314 MiB (17%)
Language                       : English
Default                        : Yes


Subtitle: Yes(English)


Screens:
 
http://i.imgbox.com/aco1ozZc.png 
http://i.imgbox.com/ablXpE7R.png 
http://i.imgbox.com/abbWbaI2.png 
http://i.imgbox.com/adoYniEu.png 
http://i.imgbox.com/adbnJX8C.png 
http://i.imgbox.com/adorFrOQ.png 
http://i.imgbox.com/acxfVxKj.png 
http://i.imgbox.com/absdPgkz.png 
http://i.imgbox.com/abzLHXrm.png 
http://i.imgbox.com/adcJRzMG.png


------------------------------------------------------------------------


Recommend you to use VLC player. Check sample to be sure. Enjoy!


Greets to: srkfan, Vitamin_X, MgB, staff members at ExtraTorrent, TPB,KAT, 1337x, PublicHD, Ahashare,
SilverTorrent, TorrentMafia, P2PDL, and all others


Encoder Notes: Looking For Early Access To Anything You Can Provide  DVDRips, BluRay, Direct Audio, Early Music
Releases, Seedboxes, Links, Dedicated Servers anything u can provide, Advance / Promo CDs/DVDs. If You Got
anything to offer contact me at "contact@tinym.eu"
